<?xml version="1.0" encoding="UTF-8" standalone="no"?>
<!DOCTYPE svg PUBLIC "-//W3C//DTD SVG 1.1//EN" "http://www.w3.org/Graphics/SVG/1.1/DTD/svg11.dtd">
<!-- Generated by Microsoft Visio, SVG Export u2fcompat-getassertion.svg Page-1 -->
<svg xmlns="http://www.w3.org/2000/svg" xmlns:xlink="http://www.w3.org/1999/xlink" xmlns:ev="http://www.w3.org/2001/xml-events"
		xmlns:v="http://schemas.microsoft.com/visio/2003/SVGExtensions/" width="7.90799in" height="9.03265in"
		viewBox="0 0 569.375 650.351" xml:space="preserve" color-interpolation-filters="sRGB" class="st36">
	<v:documentProperties v:langID="1033" v:viewMarkup="false"/>

	<style type="text/css">
	<![CDATA[
		.st1 {fill:none;stroke:none;stroke-linecap:butt;stroke-width:0.719945}
		.st2 {fill:#000000;font-family:Calibri;font-size:0.75em}
		.st3 {fill:#000000;font-family:Calibri;font-size:0.614296em;font-stretch:semi-expanded}
		.st4 {fill:none;stroke:none;stroke-width:0.25232}
		.st5 {fill:#000000;font-family:Calibri;font-size:0.848877em;font-stretch:normal}
		.st6 {fill:none;stroke:#000000;stroke-width:0.96}
		.st7 {fill:none;stroke:none;stroke-linecap:round;stroke-linejoin:round;stroke-width:0.75}
		.st8 {fill:#000000;font-family:Calibri;font-size:1.00001em}
		.st9 {font-size:1em}
		.st10 {fill:#fee599;stroke:#000000;stroke-width:0.96}
		.st11 {fill:#ddd6e5;stroke:#000000;stroke-width:0.96}
		.st12 {stroke:#000000;stroke-linecap:round;stroke-linejoin:round;stroke-width:0.24}
		.st13 {fill:#92cddc;stroke:#000000;stroke-width:0.96}
		.st14 {fill:#c4d6a0;stroke:#000000;stroke-width:0.96}
		.st15 {marker-end:url(#mrkr5-97);stroke:#00b050;stroke-linecap:round;stroke-linejoin:round;stroke-width:0.75}
		.st16 {fill:#00b050;fill-opacity:1;stroke:#00b050;stroke-opacity:1;stroke-width:0.22935779816514}
		.st17 {fill:#92cddc;stroke:#000000;stroke-linecap:round;stroke-linejoin:round;stroke-width:0.38}
		.st18 {fill:#c4d6a0;stroke:#000000;stroke-linecap:round;stroke-linejoin:round;stroke-width:0.378807}
		.st19 {marker-end:url(#mrkr5-135);stroke:#612621;stroke-linecap:round;stroke-linejoin:round;stroke-width:0.75}
		.st20 {fill:#612621;fill-opacity:1;stroke:#612621;stroke-opacity:1;stroke-width:0.22935779816514}
		.st21 {marker-end:url(#mrkr5-142);stroke:#205867;stroke-linecap:round;stroke-linejoin:round;stroke-width:0.75}
		.st22 {fill:#205867;fill-opacity:1;stroke:#205867;stroke-opacity:1;stroke-width:0.22935779816514}
		.st23 {marker-end:url(#mrkr5-149);stroke:#9c4a09;stroke-linecap:round;stroke-linejoin:round;stroke-width:0.75}
		.st24 {fill:#9c4a09;fill-opacity:1;stroke:#9c4a09;stroke-opacity:1;stroke-width:0.22935779816514}
		.st25 {fill:#4bacc6;stroke:#000000;stroke-width:0.96}
		.st26 {stroke:#7f6000;stroke-linecap:round;stroke-linejoin:round;stroke-width:0.75}
		.st27 {marker-end:url(#mrkr5-200);stroke:#54426a;stroke-linecap:round;stroke-linejoin:round;stroke-width:0.75}
		.st28 {fill:#54426a;fill-opacity:1;stroke:#54426a;stroke-opacity:1;stroke-width:0.22935779816514}
		.st29 {stroke:#54426a;stroke-linecap:round;stroke-linejoin:round;stroke-width:0.75}
		.st30 {marker-end:url(#mrkr5-226);stroke:#7f6000;stroke-linecap:round;stroke-linejoin:round;stroke-width:0.75}
		.st31 {fill:#7f6000;fill-opacity:1;stroke:#7f6000;stroke-opacity:1;stroke-width:0.22935779816514}
		.st32 {fill:none;stroke:#0070c0;stroke-linecap:round;stroke-linejoin:round;stroke-width:0.75}
		.st33 {stroke:#612621;stroke-linecap:round;stroke-linejoin:round;stroke-width:0.75}
		.st34 {marker-end:url(#mrkr5-260);stroke:#000000;stroke-linecap:round;stroke-linejoin:round;stroke-width:0.75}
		.st35 {fill:#000000;fill-opacity:1;stroke:#000000;stroke-opacity:1;stroke-width:0.22935779816514}
		.st36 {fill:none;fill-rule:evenodd;font-size:12px;overflow:visible;stroke-linecap:square;stroke-miterlimit:3}
	]]>
	</style>

	<defs id="Markers">
		<g id="lend5">
			<path d="M 2 1 L 0 0 L 1.98117 -0.993387 C 1.67173 -0.364515 1.67301 0.372641 1.98465 1.00043 " style="stroke:none"/>
		</g>
		<marker id="mrkr5-97" class="st16" v:arrowType="5" v:arrowSize="2" v:setback="7.63" refX="-7.63" orient="auto"
				markerUnits="strokeWidth" overflow="visible">
			<use xlink:href="#lend5" transform="scale(-4.36,-4.36) "/>
		</marker>
		<marker id="mrkr5-135" class="st20" v:arrowType="5" v:arrowSize="2" v:setback="7.63" refX="-7.63" orient="auto"
				markerUnits="strokeWidth" overflow="visible">
			<use xlink:href="#lend5" transform="scale(-4.36,-4.36) "/>
		</marker>
		<marker id="mrkr5-142" class="st22" v:arrowType="5" v:arrowSize="2" v:setback="7.63" refX="-7.63" orient="auto"
				markerUnits="strokeWidth" overflow="visible">
			<use xlink:href="#lend5" transform="scale(-4.36,-4.36) "/>
		</marker>
		<marker id="mrkr5-149" class="st24" v:arrowType="5" v:arrowSize="2" v:setback="7.63" refX="-7.63" orient="auto"
				markerUnits="strokeWidth" overflow="visible">
			<use xlink:href="#lend5" transform="scale(-4.36,-4.36) "/>
		</marker>
		<marker id="mrkr5-200" class="st28" v:arrowType="5" v:arrowSize="2" v:setback="7.63" refX="-7.63" orient="auto"
				markerUnits="strokeWidth" overflow="visible">
			<use xlink:href="#lend5" transform="scale(-4.36,-4.36) "/>
		</marker>
		<marker id="mrkr5-226" class="st31" v:arrowType="5" v:arrowSize="2" v:setback="7.63" refX="-7.63" orient="auto"
				markerUnits="strokeWidth" overflow="visible">
			<use xlink:href="#lend5" transform="scale(-4.36,-4.36) "/>
		</marker>
		<marker id="mrkr5-260" class="st35" v:arrowType="5" v:arrowSize="2" v:setback="7.63" refX="-7.63" orient="auto"
				markerUnits="strokeWidth" overflow="visible">
			<use xlink:href="#lend5" transform="scale(-4.36,-4.36) "/>
		</marker>
	</defs>
	<g v:mID="0" v:index="1" v:groupContext="foregroundPage">
		<title>Page-1</title>
		<v:pageProperties v:drawingScale="1" v:pageScale="1" v:drawingUnits="19" v:shadowOffsetX="9" v:shadowOffsetY="-9"/>
		<v:layer v:name="Connector" v:index="0"/>
		<g id="shape1029-1" v:mID="1029" v:groupContext="shape" transform="translate(96.0644,-95.6348)">
			<title>text138</title>
			<desc>32 bytes</desc>
			<v:userDefs/>
			<v:textBlock v:margins="rect(0,0,0,0)" v:tabSpace="42.5197"/>
			<v:textRect cx="20.4678" cy="646.611" width="40.94" height="8.1181"/>
			<rect x="0" y="642.871" width="40.9356" height="7.4805" class="st1"/>
			<text x="-0" y="649.31" class="st2" v:langID="1033"><v:paragraph/><v:tabList/>RP ID Hash</text>		</g>
		<g id="shape1031-4" v:mID="1031" v:groupContext="shape" transform="translate(187.116,-95.2695)">
			<title>text146</title>
			<desc>4 bytes (big-endian uint32)</desc>
			<v:userDefs/>
			<v:textBlock v:margins="rect(0,0,0,0)" v:tabSpace="42.5197"/>
			<v:textRect cx="38.8073" cy="646.611" width="77.62" height="8.1181"/>
			<rect x="0" y="642.871" width="77.6146" height="7.4805" class="st1"/>
			<text x="-0" y="648.82" class="st3" v:langID="1033"><v:paragraph/><v:tabList/>Counter</text>		</g>
		<g id="shape1040-7" v:mID="1040" v:groupContext="shape" transform="translate(236.382,-76.0795)">
			<title>Tabelle.57</title>
			<desc>AUTHENTICATOR DATA</desc>
			<v:userDefs/>
			<v:textBlock v:margins="rect(4,4,4,4)" v:tabSpace="42.5197"/>
			<v:textRect cx="51.5589" cy="641.737" width="103.13" height="16.9127"/>
			<rect x="0" y="633.123" width="103.118" height="17.2281" class="st4"/>
			<text x="4" y="644.79" class="st5" v:langID="1031"><v:paragraph/><v:tabList/>AUTHENTICATOR DATA</text>		</g>
		<g id="shape1060-10" v:mID="1060" v:groupContext="shape" transform="translate(182,-612.144)">
			<title>rect4556.1000</title>
			<desc>RPID</desc>
			<v:textBlock v:margins="rect(0,0,0,0)"/>
			<v:textRect cx="57.375" cy="641.516" width="114.75" height="17.6705"/>
			<rect x="0" y="632.681" width="114.75" height="17.6705" class="st6"/>
			<text x="48.7" y="644.22" class="st2" v:langID="1033"><v:paragraph v:horizAlign="1"/><v:tabList/>RPID</text>		</g>
		<g id="shape1062-13" v:mID="1062" v:groupContext="shape" transform="translate(408.245,-601.015)">
			<title>Sheet.1062</title>
			<desc>authenticatorGetAssertion parameters</desc>
			<v:textBlock v:margins="rect(4,4,4,4)"/>
			<v:textRect cx="76.5" cy="630.101" width="153" height="40.5"/>
			<rect x="0" y="609.851" width="153" height="40.5" class="st7"/>
			<text x="11.38" y="626.5" class="st8" v:langID="1033"><v:paragraph v:horizAlign="1"/><v:tabList/>authenticatorGetAssertion <tspan
						x="48.3" dy="1.2em" class="st9">parameters</tspan></text>		</g>
		<g id="shape1065-17" v:mID="1065" v:groupContext="shape" transform="translate(182,-554.204)">
			<title>rect4556.1020</title>
			<desc>SHA-256 (RPID)</desc>
			<v:textBlock v:margins="rect(0,0,0,0)"/>
			<v:textRect cx="57.375" cy="641.516" width="114.75" height="17.6705"/>
			<rect x="0" y="632.681" width="114.75" height="17.6705" class="st10"/>
			<text x="29.26" y="644.22" class="st2" v:langID="1033"><v:paragraph v:horizAlign="1"/><v:tabList/>SHA-256 (RPID)</text>		</g>
		<g id="shape1066-20" v:mID="1066" v:groupContext="shape" transform="translate(416,-448.455)">
			<title>Sheet.1066</title>
			<desc>U2F Authentication Request</desc>
			<v:textBlock v:margins="rect(4,4,4,4)"/>
			<v:textRect cx="67.5" cy="641.516" width="135" height="17.6705"/>
			<rect x="0" y="632.681" width="135" height="17.6705" class="st7"/>
			<text x="20.07" y="637.92" class="st8" v:langID="1033"><v:paragraph v:horizAlign="1"/><v:tabList/>U2F Authentication <tspan
						x="47.61" dy="1.2em" class="st9">Request</tspan></text>		</g>
		<g id="shape1067-24" v:mID="1067" v:groupContext="shape" transform="translate(92,-448.455)">
			<title>rect4556.1037</title>
			<desc>1</desc>
			<v:textBlock v:margins="rect(0,0,0,0)"/>
			<v:textRect cx="10.1688" cy="641.516" width="20.34" height="17.6705"/>
			<rect x="0" y="632.681" width="20.3375" height="17.6705" class="st6"/>
			<text x="7.89" y="644.22" class="st2" v:langID="1033"><v:paragraph v:horizAlign="1"/><v:tabList/>1</text>		</g>
		<g id="shape1068-27" v:mID="1068" v:groupContext="shape" transform="translate(112.25,-448.455)">
			<title>rect4556.1038</title>
			<desc>32 bytes</desc>
			<v:textBlock v:margins="rect(0,0,0,0)"/>
			<v:textRect cx="28.7313" cy="641.516" width="57.47" height="17.6705"/>
			<rect x="0" y="632.681" width="57.4625" height="17.6705" class="st11"/>
			<text x="13.24" y="644.22" class="st2" v:langID="1033"><v:paragraph v:horizAlign="1"/><v:tabList/>32 bytes</text>		</g>
		<g id="shape1069-30" v:mID="1069" v:groupContext="shape" transform="translate(-336.632,-199.602) rotate(-45)">
			<title>Sheet.1069</title>
			<desc>Challenge Parameter</desc>
			<v:textBlock v:margins="rect(4,4,4,4)"/>
			<v:textRect cx="32.8642" cy="643.766" width="65.73" height="13.1705"/>
			<rect x="0" y="637.18" width="65.7284" height="13.1705" class="st7"/>
			<text x="14.92" y="641.07" class="st2" v:langID="1033"><v:paragraph v:horizAlign="1"/><v:tabList/>Challenge <tspan
						x="13.51" dy="1.2em" class="st9">Parameter</tspan></text>		</g>
		<g id="shape1074-34" v:mID="1074" v:groupContext="shape" transform="translate(169.537,-439.125) scale(-1,1)">
			<title>Side brace.1044</title>
			<v:userDefs>
				<v:ud v:nameU="TxtW" v:val="VT0(0.55555555555556):29"/>
				<v:ud v:nameU="TxtA" v:val="VT0(1.5707963267949):32"/>
				<v:ud v:nameU="TxtAState" v:val="VT0(0):26"/>
				<v:ud v:nameU="TxtWState" v:val="VT0(0):26"/>
				<v:ud v:nameU="MaxRadius" v:val="VT0(0.25):1"/>
				<v:ud v:nameU="PosCH1" v:prompt="Constrains X position of Control Handle #1" v:val="VT0(0):26"/>
				<v:ud v:nameU="PosCH2" v:prompt="Constrains Y position of Control Handle #2" v:val="VT0(0):26"/>
				<v:ud v:nameU="Scale" v:val="VT0(1):26"/>
				<v:ud v:nameU="AntiScale" v:val="VT0(1):26"/>
				<v:ud v:nameU="visVersion" v:val="VT0(15):26"/>
				<v:ud v:nameU="TxtW" v:prompt="" v:val="VT0(0.69444444444444):29"/>
				<v:ud v:nameU="TxtA" v:prompt="" v:val="VT0(0):32"/>
				<v:ud v:nameU="TxtAState" v:prompt="" v:val="VT0(1):26"/>
				<v:ud v:nameU="MaxRadius" v:prompt="" v:val="VT0(0.062499776482577):1"/>
			</v:userDefs>
			<path d="M-0 645.85 A4.49991 4.49991 -180 0 0 4.5 650.35 L24.14 650.35 A4.49991 4.49991 0 0 1 28.64 654.85 A4.49991 4.49991
						 0 0 1 33.14 650.35 L52.79 650.35 A4.49991 4.49991 -180 0 0 57.29 645.85" class="st12"/>
		</g>
		<g id="shape1075-37" v:mID="1075" v:groupContext="shape" transform="translate(-387.909,-191.855) rotate(-45)">
			<title>Sheet.1075</title>
			<desc>Control Byte (USB: 0x07, NFC: 0x03)</desc>
			<v:textBlock v:margins="rect(4,4,4,4)"/>
			<v:textRect cx="30.081" cy="647.854" width="60.17" height="4.99429"/>
			<rect x="0" y="645.357" width="60.1619" height="4.99429" class="st7"/>
			<text x="7.21" y="639.75" class="st2" v:langID="1033"><v:paragraph v:horizAlign="1"/><v:tabList/>Control Byte<v:newlineChar/><tspan
						x="9.18" dy="1.2em" class="st9">(USB: 0x07, </tspan><tspan x="10.33" dy="1.2em" class="st9">NFC: 0x03)</tspan></text>		</g>
		<g id="shape1076-42" v:mID="1076" v:groupContext="shape" transform="translate(227,-448.455)">
			<title>rect4556.1047</title>
			<desc>1</desc>
			<v:textBlock v:margins="rect(0,0,0,0)"/>
			<v:textRect cx="10.1688" cy="641.516" width="20.34" height="17.6705"/>
			<rect x="0" y="632.681" width="20.3375" height="17.6705" class="st13"/>
			<text x="7.89" y="644.22" class="st2" v:langID="1033"><v:paragraph v:horizAlign="1"/><v:tabList/>1</text>		</g>
		<g id="shape1077-45" v:mID="1077" v:groupContext="shape" transform="translate(247.425,-439.125) scale(-1,1)">
			<title>Side brace.1048</title>
			<v:userDefs>
				<v:ud v:nameU="TxtW" v:val="VT0(0.55555555555556):29"/>
				<v:ud v:nameU="TxtA" v:val="VT0(1.5707963267949):32"/>
				<v:ud v:nameU="TxtAState" v:val="VT0(0):26"/>
				<v:ud v:nameU="TxtWState" v:val="VT0(0):26"/>
				<v:ud v:nameU="MaxRadius" v:val="VT0(0.25):1"/>
				<v:ud v:nameU="PosCH1" v:prompt="Constrains X position of Control Handle #1" v:val="VT0(0):26"/>
				<v:ud v:nameU="PosCH2" v:prompt="Constrains Y position of Control Handle #2" v:val="VT0(0):26"/>
				<v:ud v:nameU="Scale" v:val="VT0(1):26"/>
				<v:ud v:nameU="AntiScale" v:val="VT0(1):26"/>
				<v:ud v:nameU="visVersion" v:val="VT0(15):26"/>
				<v:ud v:nameU="TxtW" v:prompt="" v:val="VT0(0.69444444444444):29"/>
				<v:ud v:nameU="TxtA" v:prompt="" v:val="VT0(0):32"/>
				<v:ud v:nameU="TxtAState" v:prompt="" v:val="VT0(1):26"/>
				<v:ud v:nameU="MaxRadius" v:prompt="" v:val="VT0(0.062499776482577):1"/>
			</v:userDefs>
			<path d="M-0 645.85 A4.49991 4.49991 -180 0 0 4.5 650.35 L5.63 650.35 A4.49991 4.49991 0 0 1 10.12 654.85 A4.49991 4.49991
						 0 0 1 14.62 650.35 L15.75 650.35 A4.49991 4.49991 -180 0 0 20.25 645.85" class="st12"/>
		</g>
		<g id="shape1078-48" v:mID="1078" v:groupContext="shape" transform="translate(-264.512,-197.541) rotate(-45)">
			<title>Sheet.1078</title>
			<desc>Key handle Length (value: L)</desc>
			<v:textBlock v:margins="rect(4,4,4,4)"/>
			<v:textRect cx="36.8187" cy="647.854" width="73.64" height="4.99429"/>
			<rect x="0" y="645.357" width="73.6374" height="4.99429" class="st7"/>
			<text x="16.67" y="645.15" class="st2" v:langID="1033"><v:paragraph v:horizAlign="1"/><v:tabList/>Key handle<v:newlineChar/><tspan
						x="6.65" dy="1.2em" class="st9">Length (value: L)</tspan></text>		</g>
		<g id="shape1079-52" v:mID="1079" v:groupContext="shape" transform="translate(247.25,-448.455)">
			<title>rect4556.1050</title>
			<desc>L bytes</desc>
			<v:textBlock v:margins="rect(0,0,0,0)"/>
			<v:textRect cx="25.875" cy="641.516" width="51.75" height="17.6705"/>
			<rect x="0" y="632.681" width="51.75" height="17.6705" class="st14"/>
			<text x="13.06" y="644.22" class="st2" v:langID="1033"><v:paragraph v:horizAlign="1"/><v:tabList/>L bytes</text>		</g>
		<g id="shape1080-55" v:mID="1080" v:groupContext="shape" transform="translate(299.525,-439.125) scale(-1,1)">
			<title>Side brace.1051</title>
			<v:userDefs>
				<v:ud v:nameU="TxtW" v:val="VT0(0.55555555555556):29"/>
				<v:ud v:nameU="TxtA" v:val="VT0(1.5707963267949):32"/>
				<v:ud v:nameU="TxtAState" v:val="VT0(0):26"/>
				<v:ud v:nameU="TxtWState" v:val="VT0(0):26"/>
				<v:ud v:nameU="MaxRadius" v:val="VT0(0.25):1"/>
				<v:ud v:nameU="PosCH1" v:prompt="Constrains X position of Control Handle #1" v:val="VT0(0):26"/>
				<v:ud v:nameU="PosCH2" v:prompt="Constrains Y position of Control Handle #2" v:val="VT0(0):26"/>
				<v:ud v:nameU="Scale" v:val="VT0(1):26"/>
				<v:ud v:nameU="AntiScale" v:val="VT0(1):26"/>
				<v:ud v:nameU="visVersion" v:val="VT0(15):26"/>
				<v:ud v:nameU="TxtW" v:prompt="" v:val="VT0(0.69444444444444):29"/>
				<v:ud v:nameU="TxtA" v:prompt="" v:val="VT0(0):32"/>
				<v:ud v:nameU="TxtAState" v:prompt="" v:val="VT0(1):26"/>
				<v:ud v:nameU="MaxRadius" v:prompt="" v:val="VT0(0.062499776482577):1"/>
			</v:userDefs>
			<path d="M-0 645.85 A4.49991 4.49991 -180 0 0 4.5 650.35 L21.38 650.35 A4.49991 4.49991 0 0 1 25.88 654.85 A4.49991 4.49991
						 0 0 1 30.37 650.35 L47.25 650.35 A4.49991 4.49991 -180 0 0 51.75 645.85" class="st12"/>
		</g>
		<g id="shape1081-58" v:mID="1081" v:groupContext="shape" transform="translate(-201.988,-207.138) rotate(-45)">
			<title>Sheet.1081</title>
			<desc>Key handle</desc>
			<v:textBlock v:margins="rect(4,4,4,4)"/>
			<v:textRect cx="24.8007" cy="647.854" width="49.61" height="4.99429"/>
			<rect x="0" y="645.357" width="49.6013" height="4.99429" class="st7"/>
			<text x="4.65" y="650.55" class="st2" v:langID="1033"><v:paragraph v:horizAlign="1"/><v:tabList/>Key handle</text>		</g>
		<g id="shape1088-61" v:mID="1088" v:groupContext="shape" transform="translate(112.075,-439.125) scale(-1,1)">
			<title>Side brace.1059</title>
			<v:userDefs>
				<v:ud v:nameU="TxtW" v:val="VT0(0.55555555555556):29"/>
				<v:ud v:nameU="TxtA" v:val="VT0(1.5707963267949):32"/>
				<v:ud v:nameU="TxtAState" v:val="VT0(0):26"/>
				<v:ud v:nameU="TxtWState" v:val="VT0(0):26"/>
				<v:ud v:nameU="MaxRadius" v:val="VT0(0.25):1"/>
				<v:ud v:nameU="PosCH1" v:prompt="Constrains X position of Control Handle #1" v:val="VT0(0):26"/>
				<v:ud v:nameU="PosCH2" v:prompt="Constrains Y position of Control Handle #2" v:val="VT0(0):26"/>
				<v:ud v:nameU="Scale" v:val="VT0(1):26"/>
				<v:ud v:nameU="AntiScale" v:val="VT0(1):26"/>
				<v:ud v:nameU="visVersion" v:val="VT0(15):26"/>
				<v:ud v:nameU="TxtW" v:prompt="" v:val="VT0(0.69444444444444):29"/>
				<v:ud v:nameU="TxtA" v:prompt="" v:val="VT0(0):32"/>
				<v:ud v:nameU="TxtAState" v:prompt="" v:val="VT0(1):26"/>
				<v:ud v:nameU="MaxRadius" v:prompt="" v:val="VT0(0.062499776482577):1"/>
			</v:userDefs>
			<path d="M-0 645.85 A4.49991 4.49991 -180 0 0 4.5 650.35 L5.63 650.35 A4.49991 4.49991 0 0 1 10.12 654.85 A4.49991 4.49991
						 0 0 1 14.62 650.35 L15.75 650.35 A4.49991 4.49991 -180 0 0 20.25 645.85" class="st12"/>
		</g>
		<g id="shape1091-64" v:mID="1091" v:groupContext="shape" transform="translate(218.198,-228.009)">
			<title>rect4556.1062</title>
			<desc>32 bytes</desc>
			<v:textBlock v:margins="rect(0,0,0,0)"/>
			<v:textRect cx="27.8005" cy="641.516" width="55.61" height="17.6705"/>
			<rect x="0" y="632.681" width="55.601" height="17.6705" class="st11"/>
			<text x="12.31" y="644.22" class="st2" v:langID="1033"><v:paragraph v:horizAlign="1"/><v:tabList/>32 bytes</text>		</g>
		<g id="shape1092-67" v:mID="1092" v:groupContext="shape" transform="translate(99.9836,-228.009)">
			<title>rect4556.1063</title>
			<desc>32 bytes</desc>
			<v:textBlock v:margins="rect(0,0,0,0)"/>
			<v:textRect cx="27.8005" cy="641.516" width="55.61" height="17.6705"/>
			<rect x="0" y="632.681" width="55.601" height="17.6705" class="st6"/>
			<text x="12.31" y="644.22" class="st2" v:langID="1033"><v:paragraph v:horizAlign="1"/><v:tabList/>32 bytes</text>		</g>
		<g id="shape1094-70" v:mID="1094" v:groupContext="shape" transform="translate(99.9836,1048.33) scale(1,-1)">
			<title>Side brace.1065</title>
			<v:userDefs>
				<v:ud v:nameU="TxtW" v:val="VT0(0.55555555555556):29"/>
				<v:ud v:nameU="TxtA" v:val="VT0(1.5707963267949):32"/>
				<v:ud v:nameU="TxtAState" v:val="VT0(0):26"/>
				<v:ud v:nameU="TxtWState" v:val="VT0(0):26"/>
				<v:ud v:nameU="MaxRadius" v:val="VT0(0.25):1"/>
				<v:ud v:nameU="PosCH1" v:prompt="Constrains X position of Control Handle #1" v:val="VT0(0):26"/>
				<v:ud v:nameU="PosCH2" v:prompt="Constrains Y position of Control Handle #2" v:val="VT0(0):26"/>
				<v:ud v:nameU="Scale" v:val="VT0(1):26"/>
				<v:ud v:nameU="AntiScale" v:val="VT0(1):26"/>
				<v:ud v:nameU="visVersion" v:val="VT0(15):26"/>
				<v:ud v:nameU="TxtW" v:prompt="" v:val="VT0(0.69444444444444):29"/>
				<v:ud v:nameU="TxtA" v:prompt="" v:val="VT0(3.1415926535898):32"/>
				<v:ud v:nameU="TxtAState" v:prompt="" v:val="VT0(1):26"/>
				<v:ud v:nameU="MaxRadius" v:prompt="" v:val="VT0(0.062499776482577):1"/>
			</v:userDefs>
			<path d="M-0 645.85 A4.49991 4.49991 -180 0 0 4.5 650.35 L100.3 650.35 A4.49991 4.49991 0 0 1 104.8 654.85 A4.49991 4.49991
						 0 0 1 109.3 650.35 L170.2 650.35 A4.49991 4.49991 -180 0 0 174.7 645.85" class="st12"/>
		</g>
		<g id="shape1096-73" v:mID="1096" v:groupContext="shape" transform="translate(-236.39,2.97485) rotate(-45)">
			<title>Sheet.1096</title>
			<desc>Challenge Parameter</desc>
			<v:textBlock v:margins="rect(4,4,4,4)"/>
			<v:textRect cx="24.8007" cy="647.854" width="49.61" height="4.99429"/>
			<rect x="0" y="645.357" width="49.6013" height="4.99429" class="st7"/>
			<text x="6.86" y="645.15" class="st2" v:langID="1033"><v:paragraph v:horizAlign="1"/><v:tabList/>Challenge <tspan
						x="5.45" dy="1.2em" class="st9">Parameter</tspan></text>		</g>
		<g id="shape1097-77" v:mID="1097" v:groupContext="shape" transform="translate(-275.465,-0.587616) rotate(-45)">
			<title>Sheet.1097</title>
			<desc>Counter</desc>
			<v:textBlock v:margins="rect(4,4,4,4)"/>
			<v:textRect cx="18.8745" cy="641.516" width="37.75" height="17.6705"/>
			<rect x="0" y="632.681" width="37.749" height="17.6705" class="st7"/>
			<text x="4.06" y="644.22" class="st2" v:langID="1033"><v:paragraph v:horizAlign="1"/><v:tabList/>Counter</text>		</g>
		<g id="shape1098-80" v:mID="1098" v:groupContext="shape" transform="translate(-312.396,2.269) rotate(-45)">
			<title>Sheet.1098</title>
			<desc>User Presence</desc>
			<v:textBlock v:margins="rect(4,4,4,4)"/>
			<v:textRect cx="20.8945" cy="641.516" width="41.79" height="17.6705"/>
			<rect x="0" y="632.681" width="41.7889" height="17.6705" class="st7"/>
			<text x="12.44" y="638.82" class="st2" v:langID="1033"><v:paragraph v:horizAlign="1"/><v:tabList/>User <tspan x="4.26"
						dy="1.2em" class="st9">Presence</tspan></text>		</g>
		<g id="shape1099-84" v:mID="1099" v:groupContext="shape" transform="translate(-368.91,8.01106) rotate(-45)">
			<title>Sheet.1099</title>
			<desc>Application Parameter</desc>
			<v:textBlock v:margins="rect(4,4,4,4)"/>
			<v:textRect cx="30.081" cy="647.854" width="60.17" height="4.99429"/>
			<rect x="0" y="645.357" width="60.1619" height="4.99429" class="st7"/>
			<text x="9.35" y="645.15" class="st2" v:langID="1033"><v:paragraph v:horizAlign="1"/><v:tabList/>Application <tspan
						x="10.73" dy="1.2em" class="st9">Parameter</tspan></text>		</g>
		<g id="shape1100-88" v:mID="1100" v:groupContext="shape" transform="translate(427.25,-270.375)">
			<title>Sheet.1100</title>
			<desc>U2F Authentication Response</desc>
			<v:textBlock v:margins="rect(4,4,4,4)"/>
			<v:textRect cx="57.375" cy="641.516" width="114.75" height="17.6705"/>
			<rect x="0" y="632.681" width="114.75" height="17.6705" class="st7"/>
			<text x="9.95" y="637.92" class="st8" v:langID="1033"><v:paragraph v:horizAlign="1"/><v:tabList/>U2F Authentication <tspan
						x="33.98" dy="1.2em" class="st9">Response</tspan></text>		</g>
		<g id="shape1102-92" v:mID="1102" v:groupContext="shape" v:layerMember="0" transform="translate(250.288,-612.144)">
			<title>Dynamic connector.1078</title>
			<path d="M-9 650.35 L-9 684.9" class="st15"/>
		</g>
		<g id="shape1109-98" v:mID="1109" v:groupContext="shape" transform="translate(398,-81.7045)">
			<title>Sheet.1109</title>
			<desc>authenticatorGetAssertion Response (returns three different o...</desc>
			<v:textBlock v:margins="rect(4,4,4,4)"/>
			<v:textRect cx="76.5" cy="641.516" width="153" height="17.6705"/>
			<rect x="0" y="632.681" width="153" height="17.6705" class="st7"/>
			<text x="11.38" y="623.52" class="st8" v:langID="1033"><v:paragraph v:horizAlign="1"/><v:tabList/>authenticatorGetAssertion<v:newlineChar/><tspan
						x="17.52" dy="1.2em" class="st9">Response (returns three </tspan><tspan x="6.81" dy="1.2em" class="st9">different objects as depicted </tspan><tspan
						x="63.47" dy="1.2em" class="st9">here)</tspan></text>		</g>
		<g id="shape1133-104" v:mID="1133" v:groupContext="shape" transform="translate(169.537,-448.455)">
			<title>rect4556.1133</title>
			<desc>32 bytes</desc>
			<v:textBlock v:margins="rect(0,0,0,0)"/>
			<v:textRect cx="28.7313" cy="641.516" width="57.47" height="17.6705"/>
			<rect x="0" y="632.681" width="57.4625" height="17.6705" class="st10"/>
			<text x="13.24" y="644.22" class="st2" v:langID="1033"><v:paragraph v:horizAlign="1"/><v:tabList/>32 bytes</text>		</g>
		<g id="shape1134-107" v:mID="1134" v:groupContext="shape" transform="translate(226.825,-439.125) scale(-1,1)">
			<title>Side brace.1134</title>
			<v:userDefs>
				<v:ud v:nameU="TxtW" v:val="VT0(0.55555555555556):29"/>
				<v:ud v:nameU="TxtA" v:val="VT0(1.5707963267949):32"/>
				<v:ud v:nameU="TxtAState" v:val="VT0(0):26"/>
				<v:ud v:nameU="TxtWState" v:val="VT0(0):26"/>
				<v:ud v:nameU="MaxRadius" v:val="VT0(0.25):1"/>
				<v:ud v:nameU="PosCH1" v:prompt="Constrains X position of Control Handle #1" v:val="VT0(0):26"/>
				<v:ud v:nameU="PosCH2" v:prompt="Constrains Y position of Control Handle #2" v:val="VT0(0):26"/>
				<v:ud v:nameU="Scale" v:val="VT0(1):26"/>
				<v:ud v:nameU="AntiScale" v:val="VT0(1):26"/>
				<v:ud v:nameU="visVersion" v:val="VT0(15):26"/>
				<v:ud v:nameU="TxtW" v:prompt="" v:val="VT0(0.69444444444444):29"/>
				<v:ud v:nameU="TxtA" v:prompt="" v:val="VT0(0):32"/>
				<v:ud v:nameU="TxtAState" v:prompt="" v:val="VT0(1):26"/>
				<v:ud v:nameU="MaxRadius" v:prompt="" v:val="VT0(0.062499776482577):1"/>
			</v:userDefs>
			<path d="M-0 645.85 A4.49991 4.49991 -180 0 0 4.5 650.35 L24.14 650.35 A4.49991 4.49991 0 0 1 28.64 654.85 A4.49991 4.49991
						 0 0 1 33.14 650.35 L52.79 650.35 A4.49991 4.49991 -180 0 0 57.29 645.85" class="st12"/>
		</g>
		<g id="shape1135-110" v:mID="1135" v:groupContext="shape" transform="translate(-295.555,-197.352) rotate(-45)">
			<title>Sheet.1135</title>
			<desc>Application Parameter</desc>
			<v:textBlock v:margins="rect(4,4,4,4)"/>
			<v:textRect cx="32.8642" cy="643.766" width="65.73" height="13.1705"/>
			<rect x="0" y="637.18" width="65.7284" height="13.1705" class="st7"/>
			<text x="12.13" y="641.07" class="st2" v:langID="1033"><v:paragraph v:horizAlign="1"/><v:tabList/>Application <tspan
						x="13.51" dy="1.2em" class="st9">Parameter</tspan></text>		</g>
		<g id="shape1136-114" v:mID="1136" v:groupContext="shape" v:layerMember="0" transform="translate(195.5,-554.204)">
			<title>Dynamic connector.1136</title>
			<path d="M9 650.35 L9 732.71" class="st15"/>
		</g>
		<g id="shape1138-120" v:mID="1138" v:groupContext="shape" transform="translate(310.861,-612.375)">
			<title>Sheet.1138</title>
			<desc>L</desc>
			<v:textBlock v:margins="rect(0,0,0,0)"/>
			<v:textRect cx="9.53373" cy="641.473" width="19.07" height="17.7566"/>
			<rect x="0" y="632.594" width="19.0675" height="17.7566" class="st17"/>
			<text x="7.64" y="644.17" class="st2" v:langID="1033"><v:paragraph v:horizAlign="1"/><v:tabList/>L</text>		</g>
		<g id="shape1139-123" v:mID="1139" v:groupContext="shape" transform="translate(329.855,-612.387)">
			<title>Sheet.1139</title>
			<desc>Credential ID</desc>
			<v:textBlock v:margins="rect(0,0,0,0)"/>
			<v:textRect cx="34.0727" cy="641.473" width="68.15" height="17.7566"/>
			<rect x="0" y="632.594" width="68.1454" height="17.7566" class="st18"/>
			<text x="10.25" y="644.17" class="st2" v:langID="1033"><v:paragraph v:horizAlign="1"/><v:tabList/>Credential ID</text>		</g>
		<g id="shape1140-126" v:mID="1140" v:groupContext="shape" transform="translate(90.6437,-612.144)">
			<title>rect4556.1140</title>
			<desc>ClientDataHash</desc>
			<v:textBlock v:margins="rect(0,0,0,0)"/>
			<v:textRect cx="41.1781" cy="641.516" width="82.36" height="17.6705"/>
			<rect x="0" y="632.681" width="82.3563" height="17.6705" class="st11"/>
			<text x="12.93" y="644.22" class="st2" v:langID="1033"><v:paragraph v:horizAlign="1"/><v:tabList/>ClientDataHash</text>		</g>
		<g id="shape1141-129" v:mID="1141" v:groupContext="shape" v:layerMember="0" transform="translate(131.981,-612.144)">
			<title>Dynamic connector.1141</title>
			<path d="M9 650.35 L9 790.65" class="st19"/>
		</g>
		<g id="shape1142-136" v:mID="1142" v:groupContext="shape" v:layerMember="0" transform="translate(310.861,-621.253)">
			<title>Dynamic connector.1142</title>
			<path d="M0 650.35 L-5.11 650.35 L-5.11 791.98 L-73.69 791.98 L-73.69 799.76" class="st21"/>
		</g>
		<g id="shape1143-143" v:mID="1143" v:groupContext="shape" v:layerMember="0" transform="translate(362.562,-612.387)">
			<title>Dynamic connector.1143</title>
			<path d="M0 650.35 L0 805.45 L-6.56 805.45 A3 3 -180 0 0 -12.56 805.45 L-57.84 805.45" class="st23"/>
		</g>
		<g id="shape1144-150" v:mID="1144" v:groupContext="shape" transform="translate(176.335,-228.009)">
			<title>rect4556.1144</title>
			<desc>4 bytes</desc>
			<v:textBlock v:margins="rect(0,0,0,0)"/>
			<v:textRect cx="21.0505" cy="641.516" width="42.11" height="17.6705"/>
			<rect x="0" y="632.681" width="42.101" height="17.6705" class="st11"/>
			<text x="7.84" y="644.22" class="st2" v:langID="1033"><v:paragraph v:horizAlign="1"/><v:tabList/>4 bytes</text>		</g>
		<g id="shape1145-153" v:mID="1145" v:groupContext="shape" transform="translate(170.541,-270.375)">
			<title>rect4556.1145</title>
			<desc>Signature</desc>
			<v:textBlock v:margins="rect(0,0,0,0)"/>
			<v:textRect cx="34.0727" cy="641.516" width="68.15" height="17.6705"/>
			<rect x="0" y="632.681" width="68.1454" height="17.6705" class="st25"/>
			<text x="16.65" y="644.22" class="st2" v:langID="1033"><v:paragraph v:horizAlign="1"/><v:tabList/>Signature</text>		</g>
		<g id="shape1147-156" v:mID="1147" v:groupContext="shape" transform="translate(113.899,1005.58) scale(1,-1)">
			<title>Side brace.1147</title>
			<v:userDefs>
				<v:ud v:nameU="TxtW" v:val="VT0(0.55555555555556):29"/>
				<v:ud v:nameU="TxtA" v:val="VT0(1.5707963267949):32"/>
				<v:ud v:nameU="TxtAState" v:val="VT0(0):26"/>
				<v:ud v:nameU="TxtWState" v:val="VT0(0):26"/>
				<v:ud v:nameU="MaxRadius" v:val="VT0(0.25):1"/>
				<v:ud v:nameU="PosCH1" v:prompt="Constrains X position of Control Handle #1" v:val="VT0(0):26"/>
				<v:ud v:nameU="PosCH2" v:prompt="Constrains Y position of Control Handle #2" v:val="VT0(0):26"/>
				<v:ud v:nameU="Scale" v:val="VT0(1):26"/>
				<v:ud v:nameU="AntiScale" v:val="VT0(1):26"/>
				<v:ud v:nameU="visVersion" v:val="VT0(15):26"/>
				<v:ud v:nameU="TxtW" v:prompt="" v:val="VT0(0.69444444444444):29"/>
				<v:ud v:nameU="TxtA" v:prompt="" v:val="VT0(3.1415926535898):32"/>
				<v:ud v:nameU="TxtAState" v:prompt="" v:val="VT0(1):26"/>
				<v:ud v:nameU="MaxRadius" v:prompt="" v:val="VT0(0.062499776482577):1"/>
			</v:userDefs>
			<path d="M-0 645.85 A4.49991 4.49991 -180 0 0 4.5 650.35 L24.14 650.35 A4.49991 4.49991 0 0 1 28.64 654.85 A4.49991 4.49991
						 0 0 1 33.14 650.35 L52.79 650.35 A4.49991 4.49991 -180 0 0 57.29 645.85" class="st12"/>
		</g>
		<g id="shape1148-159" v:mID="1148" v:groupContext="shape" transform="translate(114.051,-270.375)">
			<title>rect4556.1148</title>
			<desc>4 bytes</desc>
			<v:textBlock v:margins="rect(0,0,0,0)"/>
			<v:textRect cx="28.7313" cy="641.516" width="57.47" height="17.6705"/>
			<rect x="0" y="632.681" width="57.4625" height="17.6705" class="st11"/>
			<text x="15.53" y="644.22" class="st2" v:langID="1033"><v:paragraph v:horizAlign="1"/><v:tabList/>4 bytes</text>		</g>
		<g id="shape1149-162" v:mID="1149" v:groupContext="shape" transform="translate(93.5175,-270.375)">
			<title>rect4556.1149</title>
			<desc>1</desc>
			<v:textBlock v:margins="rect(0,0,0,0)"/>
			<v:textRect cx="10.1688" cy="641.516" width="20.34" height="17.6705"/>
			<rect x="0" y="632.681" width="20.3375" height="17.6705" class="st6"/>
			<text x="7.89" y="644.22" class="st2" v:langID="1033"><v:paragraph v:horizAlign="1"/><v:tabList/>1</text>		</g>
		<g id="shape1150-165" v:mID="1150" v:groupContext="shape" transform="translate(93.5175,1005.58) scale(1,-1)">
			<title>Side brace.1150</title>
			<v:userDefs>
				<v:ud v:nameU="TxtW" v:val="VT0(0.55555555555556):29"/>
				<v:ud v:nameU="TxtA" v:val="VT0(1.5707963267949):32"/>
				<v:ud v:nameU="TxtAState" v:val="VT0(0):26"/>
				<v:ud v:nameU="TxtWState" v:val="VT0(0):26"/>
				<v:ud v:nameU="MaxRadius" v:val="VT0(0.25):1"/>
				<v:ud v:nameU="PosCH1" v:prompt="Constrains X position of Control Handle #1" v:val="VT0(0):26"/>
				<v:ud v:nameU="PosCH2" v:prompt="Constrains Y position of Control Handle #2" v:val="VT0(0):26"/>
				<v:ud v:nameU="Scale" v:val="VT0(1):26"/>
				<v:ud v:nameU="AntiScale" v:val="VT0(1):26"/>
				<v:ud v:nameU="visVersion" v:val="VT0(15):26"/>
				<v:ud v:nameU="TxtW" v:prompt="" v:val="VT0(0.69444444444444):29"/>
				<v:ud v:nameU="TxtA" v:prompt="" v:val="VT0(3.1415926535898):32"/>
				<v:ud v:nameU="TxtAState" v:prompt="" v:val="VT0(1):26"/>
				<v:ud v:nameU="MaxRadius" v:prompt="" v:val="VT0(0.062499776482577):1"/>
			</v:userDefs>
			<path d="M-0 645.85 A4.49991 4.49991 -180 0 0 4.5 650.35 L5.63 650.35 A4.49991 4.49991 0 0 1 10.12 654.85 A4.49991 4.49991
						 0 0 1 14.62 650.35 L15.75 650.35 A4.49991 4.49991 -180 0 0 20.25 645.85" class="st12"/>
		</g>
		<g id="shape1151-168" v:mID="1151" v:groupContext="shape" transform="translate(171.71,1005.58) scale(1,-1)">
			<title>Side brace.1151</title>
			<v:userDefs>
				<v:ud v:nameU="TxtW" v:val="VT0(0.55555555555556):29"/>
				<v:ud v:nameU="TxtA" v:val="VT0(1.5707963267949):32"/>
				<v:ud v:nameU="TxtAState" v:val="VT0(0):26"/>
				<v:ud v:nameU="TxtWState" v:val="VT0(0):26"/>
				<v:ud v:nameU="MaxRadius" v:val="VT0(0.25):1"/>
				<v:ud v:nameU="PosCH1" v:prompt="Constrains X position of Control Handle #1" v:val="VT0(0):26"/>
				<v:ud v:nameU="PosCH2" v:prompt="Constrains Y position of Control Handle #2" v:val="VT0(0):26"/>
				<v:ud v:nameU="Scale" v:val="VT0(1):26"/>
				<v:ud v:nameU="AntiScale" v:val="VT0(1):26"/>
				<v:ud v:nameU="visVersion" v:val="VT0(15):26"/>
				<v:ud v:nameU="TxtW" v:prompt="" v:val="VT0(0.69444444444444):29"/>
				<v:ud v:nameU="TxtA" v:prompt="" v:val="VT0(3.1415926535898):32"/>
				<v:ud v:nameU="TxtAState" v:prompt="" v:val="VT0(1):26"/>
				<v:ud v:nameU="MaxRadius" v:prompt="" v:val="VT0(0.062499776482577):1"/>
			</v:userDefs>
			<path d="M-0 645.85 A4.49991 4.49991 -180 0 0 4.5 650.35 L28.99 650.35 A4.49991 4.49991 0 0 1 33.49 654.85 A4.49991 4.49991
						 0 0 1 37.99 650.35 L62.48 650.35 A4.49991 4.49991 -180 0 0 66.98 645.85" class="st12"/>
		</g>
		<g id="shape1152-171" v:mID="1152" v:groupContext="shape" transform="translate(-256.255,-107.221) rotate(-45)">
			<title>Sheet.1152</title>
			<desc>Signature</desc>
			<v:textBlock v:margins="rect(4,4,4,4)"/>
			<v:textRect cx="24.8007" cy="647.854" width="49.61" height="4.99429"/>
			<rect x="0" y="645.357" width="49.6013" height="4.99429" class="st7"/>
			<text x="7.38" y="650.55" class="st2" v:langID="1033"><v:paragraph v:horizAlign="1"/><v:tabList/>Signature</text>		</g>
		<g id="shape1153-174" v:mID="1153" v:groupContext="shape" transform="translate(-323.755,-105.207) rotate(-45)">
			<title>Sheet.1153</title>
			<desc>Counter</desc>
			<v:textBlock v:margins="rect(4,4,4,4)"/>
			<v:textRect cx="24.8007" cy="647.854" width="49.61" height="4.99429"/>
			<rect x="0" y="645.357" width="49.6013" height="4.99429" class="st7"/>
			<text x="9.98" y="650.55" class="st2" v:langID="1033"><v:paragraph v:horizAlign="1"/><v:tabList/>Counter</text>		</g>
		<g id="shape1154-177" v:mID="1154" v:groupContext="shape" transform="translate(-359.755,-105.207) rotate(-45)">
			<title>Sheet.1154</title>
			<desc>User Presence</desc>
			<v:textBlock v:margins="rect(4,4,4,4)"/>
			<v:textRect cx="32.0879" cy="647.854" width="64.18" height="4.99429"/>
			<rect x="0" y="645.357" width="64.1758" height="4.99429" class="st7"/>
			<text x="5.98" y="650.55" class="st2" v:langID="1033"><v:paragraph v:horizAlign="1"/><v:tabList/>User Presence</text>		</g>
		<g id="shape1155-180" v:mID="1155" v:groupContext="shape" transform="translate(155.911,-228.035)">
			<title>rect4556.1155</title>
			<desc>1</desc>
			<v:textBlock v:margins="rect(0,0,0,0)"/>
			<v:textRect cx="10.1688" cy="641.516" width="20.34" height="17.6705"/>
			<rect x="0" y="632.681" width="20.3375" height="17.6705" class="st6"/>
			<text x="7.89" y="644.22" class="st2" v:langID="1033"><v:paragraph v:horizAlign="1"/><v:tabList/>1</text>		</g>
		<g id="shape1158-183" v:mID="1158" v:groupContext="shape" v:layerMember="0" transform="translate(76.6863,-63.375)">
			<title>Dynamic connector.1158</title>
			<path d="M0 659.35 L3.31 659.35 A3 3 0 0 1 9.31 659.35 L84.31 659.35" class="st26"/>
		</g>
		<g id="shape1159-186" v:mID="1159" v:groupContext="shape" v:layerMember="0" transform="translate(98.6238,-270.375)">
			<title>Dynamic connector.1159</title>
			<path d="M0 650.35 L0 666.1 L-21.94 666.1 L-21.94 866.35" class="st26"/>
		</g>
		<g id="shape1160-189" v:mID="1160" v:groupContext="shape" transform="translate(94.6863,-129.993)">
			<title>Sheet.1160</title>
			<desc>Credential ID</desc>
			<v:textBlock v:margins="rect(0,0,0,0)"/>
			<v:textRect cx="34.0727" cy="641.473" width="68.15" height="17.7566"/>
			<rect x="0" y="632.594" width="68.1454" height="17.7566" class="st18"/>
			<text x="10.25" y="644.17" class="st2" v:langID="1033"><v:paragraph v:horizAlign="1"/><v:tabList/>Credential ID</text>		</g>
		<g id="shape1161-192" v:mID="1161" v:groupContext="shape" transform="translate(92.7648,-18.7045)">
			<title>rect4556.1161</title>
			<desc>Signature</desc>
			<v:textBlock v:margins="rect(0,0,0,0)"/>
			<v:textRect cx="34.0727" cy="641.516" width="68.15" height="17.6705"/>
			<rect x="0" y="632.681" width="68.1454" height="17.6705" class="st25"/>
			<text x="16.65" y="644.22" class="st2" v:langID="1033"><v:paragraph v:horizAlign="1"/><v:tabList/>Signature</text>		</g>
		<g id="shape1162-195" v:mID="1162" v:groupContext="shape" v:layerMember="0" transform="translate(67.6863,-36.375)">
			<title>Dynamic connector.1162</title>
			<path d="M0 659.35 L19.36 659.35" class="st27"/>
		</g>
		<g id="shape1163-201" v:mID="1163" v:groupContext="shape" v:layerMember="0" transform="translate(204.614,-270.375)">
			<title>Dynamic connector.1163</title>
			<path d="M0 650.35 L0 658.6 L-62.08 658.6 A3 3 -180 0 0 -68.08 658.6 L-102.99 658.6 A3 3 -180 0 0 -108.99 658.6 L-136.93
						 658.6 L-136.93 893.35" class="st29"/>
		</g>
		<g id="shape1164-204" v:mID="1164" v:groupContext="shape" v:layerMember="0" transform="translate(353,-612.387)">
			<title>Dynamic connector.1164</title>
			<path d="M0 650.35 L0 1123.87 L-184.45 1123.87" class="st23"/>
		</g>
		<g id="shape1165-209" v:mID="1165" v:groupContext="shape" transform="translate(171.27,-76.0795)">
			<title>rect4556.1165</title>
			<desc>4 bytes</desc>
			<v:textBlock v:margins="rect(0,0,0,0)"/>
			<v:textRect cx="28.7313" cy="641.516" width="57.47" height="17.6705"/>
			<rect x="0" y="632.681" width="57.4625" height="17.6705" class="st11"/>
			<text x="15.53" y="644.22" class="st2" v:langID="1033"><v:paragraph v:horizAlign="1"/><v:tabList/>4 bytes</text>		</g>
		<g id="shape1166-212" v:mID="1166" v:groupContext="shape" transform="translate(92.7648,-76.0864)">
			<title>rect4556.1166</title>
			<desc>32 bytes</desc>
			<v:textBlock v:margins="rect(0,0,0,0)"/>
			<v:textRect cx="28.7313" cy="641.516" width="57.47" height="17.6705"/>
			<rect x="0" y="632.681" width="57.4625" height="17.6705" class="st10"/>
			<text x="13.24" y="644.22" class="st2" v:langID="1033"><v:paragraph v:horizAlign="1"/><v:tabList/>32 bytes</text>		</g>
		<g id="shape1167-215" v:mID="1167" v:groupContext="shape" transform="translate(150.412,-76.0795)">
			<title>rect4556.1167</title>
			<desc>1</desc>
			<v:textBlock v:margins="rect(0,0,0,0)"/>
			<v:textRect cx="10.1688" cy="641.516" width="20.34" height="17.6705"/>
			<rect x="0" y="632.681" width="20.3375" height="17.6705" class="st6"/>
			<text x="7.89" y="644.22" class="st2" v:langID="1033"><v:paragraph v:horizAlign="1"/><v:tabList/>1</text>		</g>
		<g id="shape1168-218" v:mID="1168" v:groupContext="shape" transform="translate(150.412,-95.6348)">
			<title>text138.1168</title>
			<desc>32 bytes</desc>
			<v:userDefs/>
			<v:textBlock v:margins="rect(0,0,0,0)" v:tabSpace="42.5197"/>
			<v:textRect cx="10.1688" cy="646.611" width="20.34" height="8.1181"/>
			<rect x="0" y="642.871" width="20.3375" height="7.4805" class="st1"/>
			<text x="-0" y="649.31" class="st2" v:langID="1033"><v:paragraph/><v:tabList/>Flags</text>		</g>
		<g id="shape1169-221" v:mID="1169" v:groupContext="shape" v:layerMember="0" transform="translate(152,-54.375)">
			<title>Dynamic connector.1095</title>
			<path d="M9 650.35 L9 634.37" class="st30"/>
		</g>
		<g id="shape1170-227" v:mID="1170" v:groupContext="shape" v:layerMember="0" transform="translate(234.312,-554.204)">
			<title>Dynamic connector.1170</title>
			<path d="M0 650.35 L0 685.34 L-26.81 685.34 A3 3 -180 0 0 -32.81 685.34 L-90.33 685.34 A3 3 -180 0 0 -96.33 685.34 L-214.31
						 685.34 L-214.31 1141.97 L-169.63 1141.97 A3 3 0 0 1 -163.63 1141.97 L-160.63 1141.97 A3 3 0 0 1 -154.63
						 1141.97 L-154.31 1141.97 A3 3 0 0 1 -148.31 1141.97 L-112.82 1141.97 L-112.82 1134.19" class="st15"/>
		</g>
		<g id="shape1172-232" v:mID="1172" v:groupContext="shape" transform="translate(29,-366.22)">
			<title>Sheet.1172</title>
			<rect x="0" y="506.351" width="540" height="144" class="st32"/>
		</g>
		<g id="shape1173-234" v:mID="1173" v:groupContext="shape" transform="translate(29,-175.875)">
			<title>Sheet.1173</title>
			<rect x="0" y="479.351" width="540" height="171" class="st32"/>
		</g>
		<g id="shape1174-236" v:mID="1174" v:groupContext="shape" transform="translate(29,-594.375)">
			<title>Sheet.1174</title>
			<rect x="0" y="594.75" width="540" height="55.601" class="st32"/>
		</g>
		<g id="shape1175-238" v:mID="1175" v:groupContext="shape" v:layerMember="0" transform="translate(186.5,-45.375)">
			<title>Dynamic connector.1175</title>
			<path d="M9 650.35 L9 625.37" class="st19"/>
		</g>
		<g id="shape1176-243" v:mID="1176" v:groupContext="shape" v:layerMember="0" transform="translate(139.531,-270.375)">
			<title>Dynamic connector.1176</title>
			<path d="M0 650.35 L0 670.6 L-56.53 670.6 L-56.53 875.35" class="st33"/>
		</g>
		<g id="shape1177-246" v:mID="1177" v:groupContext="shape" v:layerMember="0" transform="translate(83,-36.375)">
			<title>Dynamic connector.1177</title>
			<path d="M0 641.35 L112.5 641.35" class="st33"/>
		</g>
		<g id="shape1178-249" v:mID="1178" v:groupContext="shape" transform="translate(29,-0.375)">
			<title>Sheet.1178</title>
			<rect x="0" y="497.351" width="540" height="153" class="st32"/>
		</g>
		<g id="shape1179-251" v:mID="1179" v:groupContext="shape" transform="translate(357.156,-554.204)">
			<title>Sheet.1179</title>
			<desc>Performed by Platform</desc>
			<v:textBlock v:margins="rect(4,4,4,4)"/>
			<v:textRect cx="63.1722" cy="641.516" width="126.35" height="17.6705"/>
			<rect x="0" y="632.681" width="126.344" height="17.6705" class="st7"/>
			<text x="7.16" y="645.12" class="st8" v:langID="1033"><v:paragraph v:horizAlign="1"/><v:tabList/>Performed by Platform</text>		</g>
		<g id="shape1180-254" v:mID="1180" v:groupContext="shape" v:layerMember="0" transform="translate(348.5,-554.04)">
			<title>Dynamic connector.1115</title>
			<path d="M0 641.52 L-35.9 641.23" class="st34"/>
		</g>
	</g>
</svg>
